<?xml version="1.0" encoding="UTF-8" standalone="no"?><!DOCTYPE svg PUBLIC "-//W3C//DTD SVG 1.1//EN" "http://www.w3.org/Graphics/SVG/1.1/DTD/svg11.dtd"><svg width="100%" height="100%" viewBox="0 0 55 42" version="1.1" xmlns="http://www.w3.org/2000/svg" xmlns:xlink="http://www.w3.org/1999/xlink" xml:space="preserve" xmlns:serif="http://www.serif.com/" style="fill-rule:evenodd;clip-rule:evenodd;stroke-linejoin:round;stroke-miterlimit:2;"><rect id="accueil" x="-612" y="-2552" width="1280" height="2729.77" style="fill:none;"/><g id="Logo"></g><path d="M45.032,20.573c-0.092,-3.667 -1.924,-6.963 -4.792,-9.227c-3.004,-2.371 -6.769,-3.259 -10.14,-4.947c-1.682,-0.842 -3.312,-1.874 -4.463,-3.383c-0.476,-0.624 -1.06,-1.279 -1.86,-1.469c-0.701,-0.166 -1.579,0.337 -1.718,1.055c-0.374,1.935 -0.375,3.971 -0.439,5.945c-0.036,1.129 -0.042,2.258 -0.103,3.387c-0.028,0.507 -0.061,1.015 -0.098,1.522c-0.033,0.45 -0.168,0.861 -0.149,1.309c0.044,0.996 -0.132,2.04 -0.217,3.041c-0.086,1.012 -0.163,2.025 -0.234,3.038c-0.154,2.212 -0.277,4.426 -0.421,6.64c-0.061,0.941 -0.084,1.887 -0.176,2.823c-0.041,0.418 -0.008,0.844 -0.063,1.266c-0.029,0.221 -0.028,0.871 -0.151,1.041c-0.119,0.164 -0.064,0.127 -0.32,0.073c-0.175,-0.036 -0.347,-0.114 -0.516,-0.167c-0.473,-0.148 -0.956,-0.262 -1.446,-0.339c-0.676,-0.106 -1.371,-0.15 -2.055,-0.093c-1.469,0.123 -3.072,0.803 -3.846,2.124c-0.968,1.65 -0.559,3.75 0.863,4.973c1.349,1.16 3.573,1.814 5.3,1.339c1.52,-0.417 2.785,-1.118 3.8,-2.354c1.72,-2.094 1.958,-4.608 2.203,-7.196c0.369,-3.9 0.564,-7.815 0.861,-11.721c0.06,-0.79 0.122,-1.579 0.207,-2.367c1.872,0.711 3.872,0.935 5.839,1.214c0.833,0.119 1.658,0.288 2.477,0.437c0.757,0.137 1.55,0.203 2.288,0.424c1.683,0.503 3.237,1.291 4.539,2.502c0.61,0.568 1.152,1.209 1.604,1.91c0.332,0.516 0.551,1.305 1.189,1.523c1.038,0.355 1.344,-0.645 1.691,-1.335c0.196,-0.392 0.118,-0.833 0.204,-1.254c0.116,-0.57 0.159,-1.152 0.142,-1.734Z" style="fill:#eb5e55;fill-rule:nonzero;"/><g id="Logo1" serif:id="Logo"></g></svg>