<?xml version="1.0" encoding="UTF-8" standalone="no"?><!DOCTYPE svg PUBLIC "-//W3C//DTD SVG 1.1//EN" "http://www.w3.org/Graphics/SVG/1.1/DTD/svg11.dtd"><svg width="100%" height="100%" viewBox="0 0 46 46" version="1.1" xmlns="http://www.w3.org/2000/svg" xmlns:xlink="http://www.w3.org/1999/xlink" xml:space="preserve" xmlns:serif="http://www.serif.com/" style="fill-rule:evenodd;clip-rule:evenodd;stroke-linecap:round;stroke-linejoin:round;stroke-miterlimit:1.5;"><rect id="contact" x="-138.333" y="-610" width="1280" height="3062.43" style="fill:none;"/><g id="Logo"></g><g id="Logo1" serif:id="Logo"></g><g><path d="M37.977,16.161l-0,17.835c-0,3.564 -2.894,6.457 -6.458,6.457l-17.835,0c-3.564,0 -6.457,-2.893 -6.457,-6.457l-0,-17.835c-0,-3.564 2.893,-6.458 6.457,-6.458l17.835,0c3.564,0 6.458,2.894 6.458,6.458Z" style="fill:none;"/><clipPath id="_clip1"><path d="M37.977,16.161l-0,17.835c-0,3.564 -2.894,6.457 -6.458,6.457l-17.835,0c-3.564,0 -6.457,-2.893 -6.457,-6.457l-0,-17.835c-0,-3.564 2.893,-6.458 6.457,-6.458l17.835,0c3.564,0 6.458,2.894 6.458,6.458Z"/></clipPath><g clip-path="url(#_clip1)"><rect x="3.277" y="7.153" width="37" height="9.943" style="fill:#eb5e55;stroke:#77b5bf;stroke-width:2px;"/></g><path d="M37.977,16.161l-0,17.835c-0,3.564 -2.894,6.457 -6.458,6.457l-17.835,0c-3.564,0 -6.457,-2.893 -6.457,-6.457l-0,-17.835c-0,-3.564 2.893,-6.458 6.457,-6.458l17.835,0c3.564,0 6.458,2.894 6.458,6.458Z" style="fill:none;stroke:#77b5bf;stroke-width:2px;"/><g><path d="M17.707,6.907l0,5.092c0,0.753 -0.612,1.365 -1.365,1.365c-0.754,0 -1.365,-0.612 -1.365,-1.365l-0,-5.092c-0,-0.753 0.611,-1.365 1.365,-1.365c0.753,-0 1.365,0.612 1.365,1.365Z" style="fill:#77b5bf;"/><path d="M29.721,6.907l-0,5.092c-0,0.753 -0.612,1.365 -1.366,1.365c-0.753,0 -1.365,-0.612 -1.365,-1.365l0,-5.092c0,-0.753 0.612,-1.365 1.365,-1.365c0.754,-0 1.366,0.612 1.366,1.365Z" style="fill:#77b5bf;"/></g><rect x="12.407" y="24.217" width="4.056" height="4.056" style="fill:#77b5bf;"/><rect x="12.407" y="29.995" width="4.056" height="4.056" style="fill:#77b5bf;"/><rect x="17.963" y="24.217" width="4.056" height="4.056" style="fill:#77b5bf;"/><rect x="17.963" y="29.995" width="4.056" height="4.056" style="fill:#77b5bf;"/><rect x="23.518" y="24.217" width="4.056" height="4.056" style="fill:#77b5bf;"/><rect x="23.518" y="29.995" width="4.056" height="4.056" style="fill:#77b5bf;"/><rect x="29.185" y="24.217" width="4.056" height="4.056" style="fill:#77b5bf;"/><rect x="29.185" y="29.995" width="4.056" height="4.056" style="fill:#77b5bf;"/></g></svg>