<?xml version="1.0" encoding="UTF-8" standalone="no"?><!DOCTYPE svg PUBLIC "-//W3C//DTD SVG 1.1//EN" "http://www.w3.org/Graphics/SVG/1.1/DTD/svg11.dtd"><svg width="100%" height="100%" viewBox="0 0 68 106" version="1.1" xmlns="http://www.w3.org/2000/svg" xmlns:xlink="http://www.w3.org/1999/xlink" xml:space="preserve" xmlns:serif="http://www.serif.com/" style="fill-rule:evenodd;clip-rule:evenodd;stroke-linejoin:round;stroke-miterlimit:2;"><rect id="accueil" x="-102" y="-13" width="1280" height="2729.77" style="fill:none;"/><g id="Logo"><path d="M58.484,37.354c-2.558,-1.423 -5.422,-2.252 -8.047,-3.567c-1.682,-0.842 -3.311,-1.874 -4.462,-3.382c-0.476,-0.625 -1.061,-1.28 -1.86,-1.47c-0.701,-0.166 -1.579,0.337 -1.718,1.056c-0.374,1.934 -0.375,3.97 -0.439,5.944c-0.036,1.13 -0.042,2.258 -0.103,3.387c-0.028,0.508 -0.062,1.015 -0.099,1.523c-0.033,0.45 -0.168,0.86 -0.148,1.308c0.044,0.996 -0.133,2.04 -0.218,3.041c-0.085,1.012 -0.162,2.025 -0.233,3.038c-0.154,2.212 -0.277,4.427 -0.421,6.64c-0.061,0.941 -0.085,1.887 -0.176,2.824c-0.041,0.417 -0.009,0.843 -0.064,1.266c-0.028,0.221 -0.027,0.87 -0.15,1.04c-0.119,0.165 -0.064,0.127 -0.321,0.073c-0.174,-0.036 -0.346,-0.113 -0.516,-0.166c-0.472,-0.149 -0.956,-0.263 -1.445,-0.34c-0.676,-0.105 -1.372,-0.149 -2.055,-0.092c-1.469,0.122 -3.072,0.803 -3.847,2.124c-0.967,1.649 -0.558,3.75 0.864,4.972c0.605,0.521 1.387,0.939 2.221,1.2l-29.858,-0l0,-58.258l53.095,-0l-0,27.839Z" style="fill:#aedbe2;"/><clipPath id="_clip1"><path d="M58.484,37.354c-2.558,-1.423 -5.422,-2.252 -8.047,-3.567c-1.682,-0.842 -3.311,-1.874 -4.462,-3.382c-0.476,-0.625 -1.061,-1.28 -1.86,-1.47c-0.701,-0.166 -1.579,0.337 -1.718,1.056c-0.374,1.934 -0.375,3.97 -0.439,5.944c-0.036,1.13 -0.042,2.258 -0.103,3.387c-0.028,0.508 -0.062,1.015 -0.099,1.523c-0.033,0.45 -0.168,0.86 -0.148,1.308c0.044,0.996 -0.133,2.04 -0.218,3.041c-0.085,1.012 -0.162,2.025 -0.233,3.038c-0.154,2.212 -0.277,4.427 -0.421,6.64c-0.061,0.941 -0.085,1.887 -0.176,2.824c-0.041,0.417 -0.009,0.843 -0.064,1.266c-0.028,0.221 -0.027,0.87 -0.15,1.04c-0.119,0.165 -0.064,0.127 -0.321,0.073c-0.174,-0.036 -0.346,-0.113 -0.516,-0.166c-0.472,-0.149 -0.956,-0.263 -1.445,-0.34c-0.676,-0.105 -1.372,-0.149 -2.055,-0.092c-1.469,0.122 -3.072,0.803 -3.847,2.124c-0.967,1.649 -0.558,3.75 0.864,4.972c0.605,0.521 1.387,0.939 2.221,1.2l-29.858,-0l0,-58.258l53.095,-0l-0,27.839Z"/></clipPath><g clip-path="url(#_clip1)"><path d="M4.005,39.254c-0.62,-0 -1.123,-0.503 -1.123,-1.123c0,-0.619 0.503,-1.122 1.123,-1.122l38.465,-0c0.619,-0 1.122,0.503 1.122,1.122c0,0.62 -0.503,1.123 -1.122,1.123l-38.465,-0Z" style="fill:#fff;"/><path d="M4.005,46.288c-0.62,0 -1.123,-0.503 -1.123,-1.122c0,-0.62 0.503,-1.123 1.123,-1.123l38.427,0c0.62,0 1.123,0.503 1.123,1.123c-0,0.619 -0.503,1.122 -1.123,1.122l-38.427,0Z" style="fill:#fff;"/><path d="M4.005,49.88c-0.62,0 -1.123,-0.503 -1.123,-1.122c0,-0.62 0.503,-1.123 1.123,-1.123l38.876,0c0.62,0 1.123,0.503 1.123,1.123c-0,0.619 -0.503,1.122 -1.123,1.122l-38.876,0Z" style="fill:#fff;"/><path d="M4.005,53.322c-0.62,0 -1.123,-0.503 -1.123,-1.122c0,-0.62 0.503,-1.123 1.123,-1.123l36.519,0c0.619,0 1.122,0.503 1.122,1.123c0,0.619 -0.503,1.122 -1.122,1.122l-36.519,0Z" style="fill:#fff;"/><path d="M4.005,42.846c-0.62,-0 -1.123,-0.503 -1.123,-1.123c0,-0.619 0.503,-1.122 1.123,-1.122l38.465,-0c0.619,-0 1.122,0.503 1.122,1.122c0,0.62 -0.503,1.123 -1.122,1.123l-38.465,-0Z" style="fill:#fff;"/></g><g><path d="M5.476,83.516c-0.032,-0.016 -0.048,-0.04 -0.048,-0.073c-0,-0.032 0.008,-0.056 0.024,-0.072c0.081,-0.082 0.146,-0.154 0.194,-0.219c0.049,-0.065 0.082,-0.154 0.098,-0.268c0.048,-0.194 0.073,-0.348 0.073,-0.462l-0,-0.875l-0.025,-0.899c0,-0.373 0.008,-0.633 0.025,-0.778c-0.017,-0.114 -0.021,-0.256 -0.012,-0.426c0.008,-0.17 0.012,-0.296 0.012,-0.377c-0,-0.324 -0.008,-0.494 -0.025,-0.51l0,-0.559l0.025,-0.438l-0,-0.243l-0.025,-2.82c0.017,-0.13 0.025,-0.357 0.025,-0.681l-0,-0.608c-0.033,-0.194 -0.033,-0.381 -0,-0.559l-0,-0.875c-0.017,-0.13 -0.025,-0.341 -0.025,-0.632l0,-0.073c0,-0.081 -0.016,-0.17 -0.048,-0.268c-0.033,-0.081 -0.069,-0.158 -0.11,-0.231c-0.04,-0.073 -0.101,-0.15 -0.182,-0.231c-0.016,-0.016 -0.024,-0.04 -0.024,-0.073c-0,-0.032 0.016,-0.048 0.048,-0.048c0,-0.016 0.081,-0.025 0.243,-0.025l0.365,0c0.065,-0.016 0.17,-0.02 0.316,-0.012c0.146,0.008 0.235,0.012 0.268,0.012l1.045,0.025l0.802,-0.025c0.049,0 0.154,-0.004 0.316,-0.012c0.162,-0.008 0.268,-0.004 0.316,0.012c0.244,-0.016 0.487,-0.024 0.73,-0.024c0.243,0 0.421,0.008 0.535,0.024c0.032,-0.032 0.073,-0.032 0.121,0l0.097,0c0.033,-0.032 0.049,-0.032 0.049,0l0.097,0c0.033,-0.016 0.081,-0.024 0.146,-0.024c0.033,0 0.057,0.008 0.073,0.024l0.049,0c0.032,0 0.056,0.009 0.073,0.025c0.016,-0 0.024,-0.008 0.024,-0.025c0.016,-0.016 0.045,-0.02 0.085,-0.012c0.041,0.008 0.077,0.021 0.109,0.037l0.511,-0c0.049,0.016 0.113,0.024 0.194,0.024c0.082,0 0.154,0.008 0.219,0.024l0.073,0.025c0.033,-0 0.077,-0.004 0.134,-0.012c0.057,-0.009 0.109,0.004 0.158,0.036c0.032,-0.032 0.073,-0.04 0.122,-0.024c0.048,0.016 0.089,0.024 0.121,0.024c0.049,0 0.093,0.008 0.134,0.024c0.04,0.017 0.077,0.033 0.109,0.049c0.049,-0 0.122,0.016 0.219,0.049l0.073,-0c0.065,0.032 0.113,0.064 0.146,0.097c0.048,0.016 0.113,0.036 0.194,0.061c0.081,0.024 0.162,0.052 0.243,0.085c0.438,0.178 0.762,0.397 0.973,0.656c0.13,0.097 0.227,0.203 0.292,0.316c0.129,0.162 0.227,0.324 0.291,0.486c0.049,0.065 0.081,0.154 0.098,0.268c0.016,0.113 0.032,0.194 0.048,0.243c0,0.049 0.012,0.122 0.037,0.219c0.024,0.097 0.028,0.178 0.012,0.243c0.032,0.032 0.049,0.085 0.049,0.158c-0,0.073 0.008,0.134 0.024,0.182c0.032,0.049 0.044,0.11 0.036,0.183c-0.008,0.073 -0.012,0.133 -0.012,0.182c0.016,0.032 0.02,0.069 0.012,0.109c-0.008,0.041 -0.012,0.069 -0.012,0.085l0,0.292c0,0.016 0.004,0.045 0.012,0.085c0.008,0.041 0.004,0.093 -0.012,0.158c0,0.049 0.004,0.106 0.012,0.17c0.008,0.065 -0.004,0.13 -0.036,0.195c-0.016,0.016 -0.024,0.049 -0.024,0.097l-0,0.11c-0,0.056 -0.017,0.101 -0.049,0.133l-0,0.073c-0,0.065 -0.016,0.195 -0.049,0.389c-0.016,0.065 -0.032,0.15 -0.048,0.256c-0.017,0.105 -0.049,0.19 -0.098,0.255c-0.032,0.065 -0.129,0.227 -0.291,0.486c-0.033,0.065 -0.13,0.178 -0.292,0.34c-0.227,0.244 -0.551,0.454 -0.973,0.633l-0.437,0.145c-0.016,0.017 -0.037,0.033 -0.061,0.049c-0.024,0.016 -0.053,0.024 -0.085,0.024c-0.016,0 -0.028,0.008 -0.037,0.025c-0.008,0.016 -0.02,0.024 -0.036,0.024c-0.049,-0 -0.122,0.016 -0.219,0.049c-0.032,-0 -0.073,0.012 -0.121,0.036c-0.049,0.024 -0.089,0.028 -0.122,0.012c-0.032,0 -0.069,0.012 -0.109,0.037c-0.041,0.024 -0.085,0.02 -0.134,-0.012c-0.049,0.032 -0.113,0.044 -0.195,0.036c-0.081,-0.008 -0.137,-0.004 -0.17,0.012c-0.081,0.033 -0.162,0.045 -0.243,0.037c-0.081,-0.008 -0.138,-0.013 -0.17,-0.013l-0.462,0l-0.049,0.025c-0.016,-0 -0.048,0.004 -0.097,0.012c-0.048,0.008 -0.081,0.004 -0.097,-0.012l-0.024,-0c-0.033,-0 -0.057,0.008 -0.073,0.024l-0.049,0c-0.016,0 -0.028,0.004 -0.036,0.012c-0.008,0.008 -0.021,0.004 -0.037,-0.012l-0.51,0c-0.081,0 -0.146,0.008 -0.195,0.024c-0.049,0.017 -0.097,0.025 -0.146,0.025c-0.048,-0 -0.105,0.004 -0.17,0.012c-0.065,0.008 -0.138,0.004 -0.219,-0.012l-0.559,-0l0,4.181c0,0.211 0.024,0.381 0.073,0.511c0.081,0.162 0.186,0.308 0.316,0.438c0.032,0.032 0.045,0.064 0.037,0.097c-0.009,0.032 -0.029,0.048 -0.061,0.048l-4.012,0Zm4.133,-6.296c0.033,-0.049 0.077,-0.065 0.134,-0.049c0.057,0.016 0.101,0.016 0.134,-0c0.032,-0.016 0.081,-0.02 0.146,-0.012c0.064,0.008 0.121,0.012 0.17,0.012l0.097,-0c0.162,-0 0.284,-0.016 0.365,-0.049c0.048,-0.016 0.125,-0.032 0.231,-0.048c0.105,-0.016 0.182,-0.025 0.231,-0.025c0.243,-0.032 0.429,-0.089 0.559,-0.17c0.211,-0.162 0.437,-0.454 0.681,-0.875l0.024,-0.073c0.016,-0.016 0.032,-0.049 0.048,-0.097c0.017,-0.049 0.025,-0.089 0.025,-0.122l0.024,-0.073c0,-0.097 0.016,-0.202 0.049,-0.316c0.032,-0.113 0.056,-0.219 0.073,-0.316c-0,-0.032 -0.004,-0.065 -0.012,-0.097c-0.009,-0.032 -0.005,-0.065 0.012,-0.097l-0,-0.146c-0.017,-0.033 -0.021,-0.077 -0.012,-0.134c0.008,-0.057 0.012,-0.101 0.012,-0.134l-0,-0.024c-0,-0.032 -0.004,-0.065 -0.012,-0.097c-0.009,-0.033 -0.005,-0.065 0.012,-0.097c-0.017,-0.033 -0.021,-0.073 -0.012,-0.122c0.008,-0.049 0.012,-0.089 0.012,-0.121l-0,-0.025c-0,-0.032 -0.004,-0.065 -0.012,-0.097c-0.009,-0.032 -0.005,-0.073 0.012,-0.122l-0,-0.145c-0.017,-0.049 -0.021,-0.09 -0.012,-0.122c0.008,-0.032 0.012,-0.065 0.012,-0.097c-0.017,-0.098 -0.041,-0.203 -0.073,-0.316c-0.033,-0.114 -0.049,-0.211 -0.049,-0.292l-0.024,-0.049c-0.033,-0.129 -0.057,-0.21 -0.073,-0.243l-0.024,-0.073c-0.227,-0.405 -0.454,-0.689 -0.681,-0.851c-0.146,-0.097 -0.332,-0.162 -0.559,-0.194c-0.065,-0.016 -0.146,-0.024 -0.243,-0.024c-0.098,-0 -0.171,-0.009 -0.219,-0.025c-0.065,-0.032 -0.146,-0.048 -0.243,-0.048l-0.377,-0c-0.073,-0 -0.126,-0.009 -0.158,-0.025l-0.049,-0.024c-0.032,-0 -0.073,0.008 -0.121,0.024c-0.049,0.016 -0.081,0 -0.098,-0.048c-0.065,0.048 -0.154,0.073 -0.267,0.073l-0.219,-0l0,5.956l0.219,-0c0.13,-0 0.219,0.016 0.267,0.049Z" style="fill:#58a4b0;fill-rule:nonzero;"/><path d="M16.246,83.516c-0.032,0 -0.048,-0.024 -0.048,-0.073c-0,-0.048 0.008,-0.081 0.024,-0.097c0,0 0.097,-0.073 0.292,-0.219l0.073,-0.243c0.048,-0.194 0.073,-0.348 0.073,-0.462l-0,-0.875l-0.025,-0.899c0,-0.373 0.009,-0.633 0.025,-0.778c-0.016,-0.114 -0.021,-0.256 -0.012,-0.426c0.008,-0.17 0.012,-0.296 0.012,-0.377c-0,-0.324 -0.008,-0.494 -0.025,-0.51l0,-0.559l0.025,-0.438l-0,-0.243l-0.025,-2.82c0.017,-0.13 0.025,-0.357 0.025,-0.681l-0,-0.608c-0.033,-0.194 -0.033,-0.381 -0,-0.559l-0,-0.875c-0.016,-0.13 -0.025,-0.341 -0.025,-0.632l0,-0.073c0,-0.081 -0.016,-0.17 -0.048,-0.268c-0.016,-0.081 -0.049,-0.154 -0.097,-0.219l-0.268,-0.243c-0.016,-0.016 -0.024,-0.044 -0.024,-0.085c-0,-0.04 0.016,-0.061 0.048,-0.061l0.316,0c0.049,-0.016 0.159,-0.02 0.329,-0.012c0.17,0.008 0.279,0.012 0.328,0.012l2.31,0c0.064,0 0.133,-0.004 0.206,-0.012c0.073,-0.008 0.134,-0.004 0.183,0.012c0.21,0 0.324,0.009 0.34,0.025c0.032,-0 0.049,0.016 0.049,0.048c-0,0.033 -0.009,0.057 -0.025,0.073c-0.097,0.114 -0.194,0.268 -0.292,0.462c-0.032,0.065 -0.048,0.13 -0.048,0.195l-0,1.118l0.024,0.9c0,0.389 -0.008,0.656 -0.024,0.802c0.016,0.113 0.02,0.255 0.012,0.425c-0.008,0.171 -0.012,0.296 -0.012,0.377c-0,0.016 -0.004,0.106 -0.012,0.268c-0.008,0.162 -0.004,0.251 0.012,0.267l0.024,0.559c0,0.114 -0.008,0.243 -0.024,0.389c-0.016,0.146 -0.016,0.276 -0,0.389c0.016,0.146 0.02,0.276 0.012,0.389c-0.008,0.114 -0.012,0.203 -0.012,0.268l-0,0.486c-0,0.162 0.008,0.344 0.024,0.547c0.016,0.203 0.016,0.369 0,0.498l-0.024,0.584l-0.024,0.705l-0,0.608c0.032,0.178 0.032,0.34 -0,0.486l-0,0.972c0.016,0.065 0.024,0.171 0.024,0.316l0.048,0c0.114,0 0.256,0.009 0.426,0.025c0.17,0.016 0.312,0.016 0.425,-0l1.848,-0c0.114,-0 0.219,-0.012 0.316,-0.037c0.097,-0.024 0.195,-0.036 0.292,-0.036c0.032,-0.033 0.089,-0.061 0.17,-0.085c0.081,-0.025 0.138,-0.045 0.17,-0.061c0.049,-0.032 0.154,-0.081 0.316,-0.146c0.341,-0.146 0.576,-0.421 0.705,-0.827c0,-0.032 0.008,-0.048 0.025,-0.048c-0,-0.016 0.008,-0.041 0.024,-0.073c0.016,-0.033 0.049,-0.041 0.097,-0.024c0.049,0.016 0.069,0.04 0.061,0.073c-0.008,0.032 -0.012,0.048 -0.012,0.048c-0,0.081 0.004,0.203 0.012,0.365c0.008,0.162 0.004,0.3 -0.012,0.413c-0.033,0.195 -0.049,0.494 -0.049,0.9l0,0.535c0,0.064 -0.024,0.097 -0.073,0.097l-5.421,0.048c-0.243,0 -0.43,-0.008 -0.559,-0.024l-1.094,0.024l-1.411,0Z" style="fill:#58a4b0;fill-rule:nonzero;"/><path d="M25.339,83.492c-0.032,0 -0.057,-0.016 -0.073,-0.049c-0.016,-0.032 -0.008,-0.064 0.024,-0.097c0.065,-0.065 0.126,-0.113 0.183,-0.146c0.057,-0.032 0.109,-0.073 0.158,-0.121l0.097,-0.195c0.032,-0.065 0.049,-0.219 0.049,-0.462l-0,-0.875l-0.025,-0.899c0,-0.373 0.008,-0.633 0.025,-0.778c-0.017,-0.114 -0.021,-0.256 -0.012,-0.426c0.008,-0.17 0.012,-0.296 0.012,-0.377c-0,-0.324 -0.008,-0.494 -0.025,-0.51l0,-0.559l0.025,-0.438l-0,-0.243l-0.025,-2.82c0.017,-0.13 0.025,-0.357 0.025,-0.681l-0,-0.608c-0.033,-0.194 -0.033,-0.381 -0,-0.559l-0,-0.875c-0.017,-0.13 -0.025,-0.341 -0.025,-0.632l0,-0.073c0,-0.114 -0.024,-0.203 -0.073,-0.268l-0.048,-0.146c-0.049,-0.048 -0.101,-0.093 -0.158,-0.133c-0.057,-0.041 -0.118,-0.093 -0.183,-0.158c-0.032,-0.033 -0.04,-0.065 -0.024,-0.098c0.016,-0.032 0.041,-0.048 0.073,-0.048l0.097,-0l0.316,-0.025l0.146,0c0.26,0 0.422,0.009 0.486,0.025l1.97,-0c0.324,-0.049 0.527,-0.057 0.608,-0.025l0.705,0.025c0.081,0.016 0.34,0.024 0.778,0.024c0.259,0 0.413,-0.008 0.461,-0.024c0.098,-0 0.187,0.008 0.268,0.024c0.081,0.016 0.162,0.024 0.243,0.024l0.195,0c0.145,0 0.251,-0.016 0.316,-0.048l1.823,-0c0.065,-0 0.097,0.032 0.097,0.097c0.016,0.162 0.02,0.304 0.012,0.426c-0.008,0.121 -0.012,0.222 -0.012,0.303c0,0.146 0.016,0.381 0.049,0.705c0.016,0.179 0.02,0.329 0.012,0.45c-0.008,0.122 -0.012,0.223 -0.012,0.304c-0,0.016 0.004,0.037 0.012,0.061c0.008,0.024 -0.012,0.053 -0.061,0.085c-0.048,0.016 -0.081,0.008 -0.097,-0.024c-0.016,-0.033 -0.032,-0.057 -0.049,-0.073l0,-0.049c-0.097,-0.373 -0.324,-0.648 -0.68,-0.826c-0.13,-0.033 -0.235,-0.073 -0.316,-0.122c-0.033,-0.016 -0.094,-0.032 -0.183,-0.049c-0.089,-0.016 -0.15,-0.04 -0.182,-0.073c-0.097,-0.016 -0.215,-0.04 -0.353,-0.073c-0.137,-0.032 -0.247,-0.048 -0.328,-0.048c-0.194,0.016 -0.365,0.02 -0.51,0.012c-0.146,-0.008 -0.268,-0.012 -0.365,-0.012c-0.097,-0 -0.219,0.004 -0.365,0.012c-0.146,0.008 -0.316,0.004 -0.51,-0.012c-0.098,-0.016 -0.227,-0.008 -0.389,0.024c-0.162,0.033 -0.316,0.049 -0.462,0.049l-0.073,-0l-0,0.729l0.024,0.9c0,0.389 -0.008,0.656 -0.024,0.802c0.016,0.113 0.02,0.255 0.012,0.425c-0.008,0.171 -0.012,0.296 -0.012,0.377c-0,0.016 -0.004,0.106 -0.012,0.268c-0.008,0.162 -0.004,0.251 0.012,0.267l0.024,0.559c0,0.098 -0.008,0.215 -0.024,0.353c-0.016,0.138 -0.016,0.247 -0,0.328l1.361,0c0.098,0 0.187,-0.008 0.268,-0.024c0.081,-0.017 0.154,-0.033 0.219,-0.049c0.178,-0.032 0.364,-0.178 0.559,-0.438c0.016,0 0.024,-0.016 0.024,-0.048l0,-0.097c0.049,-0.049 0.089,-0.073 0.122,-0.073c0.016,-0 0.04,0.032 0.073,0.097l-0,2.164c-0,0.016 0.004,0.044 0.012,0.085c0.008,0.04 -0.012,0.061 -0.061,0.061c-0.081,-0 -0.13,-0.041 -0.146,-0.122c0,-0.049 -0.016,-0.081 -0.049,-0.097c-0.275,-0.276 -0.551,-0.446 -0.826,-0.511c-0.081,-0.016 -0.203,-0.024 -0.365,-0.024c-0.162,-0.016 -0.32,-0.02 -0.474,-0.012c-0.154,0.008 -0.312,0.004 -0.474,-0.012l-0.243,0.024l-0,0.316c-0,0.146 0.008,0.324 0.024,0.535c0.016,0.21 0.016,0.381 0,0.51l-0.024,0.584l-0.024,0.705l-0,0.608c0.032,0.178 0.032,0.34 -0,0.486l-0,0.972l0.024,0.292l0.073,0c0.129,0 0.279,0.012 0.45,0.037c0.17,0.024 0.303,0.028 0.401,0.012l1.799,-0c0.081,-0 0.182,-0.016 0.304,-0.049c0.121,-0.032 0.231,-0.049 0.328,-0.049c0.049,-0.048 0.109,-0.077 0.182,-0.085c0.073,-0.008 0.134,-0.02 0.183,-0.036c0.032,-0.032 0.085,-0.061 0.158,-0.085c0.073,-0.024 0.125,-0.045 0.158,-0.061c0.356,-0.178 0.583,-0.462 0.68,-0.851l0,-0.024c0.017,-0.016 0.033,-0.041 0.049,-0.073c0.016,-0.033 0.049,-0.041 0.097,-0.024c0.049,-0 0.069,0.016 0.061,0.048c-0.008,0.033 -0.012,0.057 -0.012,0.073c-0,0.097 0.004,0.207 0.012,0.328c0.008,0.122 0.004,0.264 -0.012,0.426c-0.033,0.211 -0.049,0.518 -0.049,0.924l0,0.535c0,0.048 -0.032,0.072 -0.097,0.072l-1.823,0c-0.146,-0.048 -0.316,-0.056 -0.511,-0.024c-0.065,0 -0.15,0.008 -0.255,0.024c-0.106,0.017 -0.191,0.017 -0.256,0c-0.032,-0.016 -0.064,-0.02 -0.097,-0.012c-0.032,0.008 -0.065,0.004 -0.097,-0.012c-0.065,-0.032 -0.138,-0.032 -0.219,0c-0.113,0.033 -0.255,0.045 -0.425,0.037c-0.17,-0.008 -0.304,-0.013 -0.401,-0.013l-1.313,0c-0.146,0 -0.3,0.009 -0.462,0.025c-0.162,0.016 -0.341,0.024 -0.535,0.024l-0.973,0.024l-0.972,-0.024l-0.073,0Z" style="fill:#58a4b0;fill-rule:nonzero;"/><path d="M34.553,83.516c-0.032,-0.016 -0.048,-0.04 -0.048,-0.073c-0,-0.032 0.008,-0.056 0.024,-0.072c0.081,-0.082 0.146,-0.154 0.194,-0.219c0.049,-0.065 0.081,-0.154 0.098,-0.268c0.048,-0.194 0.073,-0.348 0.073,-0.462l-0,-0.875l-0.025,-0.899c0,-0.373 0.008,-0.633 0.025,-0.778c-0.017,-0.114 -0.021,-0.256 -0.013,-0.426c0.009,-0.17 0.013,-0.296 0.013,-0.377c-0,-0.324 -0.008,-0.494 -0.025,-0.51l0,-0.559l0.025,-0.438l-0,-0.243l-0.025,-2.82c0.017,-0.13 0.025,-0.357 0.025,-0.681l-0,-0.608c-0.033,-0.194 -0.033,-0.381 -0,-0.559l-0,-0.875c-0.017,-0.13 -0.025,-0.341 -0.025,-0.632l0,-0.073c0,-0.081 -0.016,-0.17 -0.048,-0.268c-0.033,-0.081 -0.069,-0.158 -0.11,-0.231c-0.04,-0.073 -0.101,-0.15 -0.182,-0.231c-0.016,-0.016 -0.024,-0.04 -0.024,-0.073c-0,-0.032 0.016,-0.048 0.048,-0.048c0,-0.016 0.106,-0.025 0.316,-0.025l0.171,0c0.243,0 0.397,0.009 0.461,0.025l2.043,-0c0.097,-0.016 0.206,-0.029 0.328,-0.037c0.121,-0.008 0.215,-0.004 0.279,0.012c0.211,0 0.325,0.009 0.341,0.025c0.032,-0 0.048,0.016 0.048,0.048c0,0.033 -0.008,0.057 -0.024,0.073c-0.097,0.114 -0.194,0.268 -0.292,0.462c-0.032,0.065 -0.048,0.13 -0.048,0.195l-0,1.118l0.024,0.9c0,0.389 -0.008,0.656 -0.024,0.802c0.016,0.113 0.02,0.255 0.012,0.425c-0.008,0.171 -0.012,0.296 -0.012,0.377c-0,0.016 -0.004,0.106 -0.012,0.268c-0.009,0.162 -0.004,0.251 0.012,0.267l0.024,0.559c0,0.114 -0.008,0.243 -0.024,0.389c-0.016,0.146 -0.016,0.276 -0,0.389c0.016,0.146 0.02,0.276 0.012,0.389c-0.008,0.114 -0.012,0.203 -0.012,0.268l-0,0.486c-0,0.162 0.008,0.344 0.024,0.547c0.016,0.203 0.016,0.369 0,0.498l-0.024,0.584l-0.025,0.705l0,0.608c0.033,0.178 0.033,0.34 0,0.486l0,0.972c0.017,0.13 0.025,0.349 0.025,0.657l-0,0.024c-0,0.049 0.016,0.105 0.048,0.17c0.017,0.033 0.045,0.098 0.085,0.195c0.041,0.097 0.11,0.194 0.207,0.292c0.016,0.016 0.024,0.04 0.024,0.072c0,0.033 -0.016,0.057 -0.048,0.073l-0.948,0l-1.021,-0.024l-1.022,0.024l-0.948,0Z" style="fill:#58a4b0;fill-rule:nonzero;"/><path d="M38.905,83.492c-0.016,0 -0.024,-0.008 -0.024,-0.024c-0,-0.016 -0.008,-0.033 -0.025,-0.049c0.017,0 0.029,-0.008 0.037,-0.024c0.008,-0.016 0.02,-0.024 0.036,-0.024c0.26,-0.082 0.446,-0.219 0.56,-0.414l0.121,-0.486l0,-1.118c-0.016,-0.081 -0.02,-0.154 -0.012,-0.219c0.008,-0.065 0.012,-0.122 0.012,-0.17l0,-4.109c-0.016,-0.276 -0.024,-1.378 -0.024,-3.306l0.024,-0l0,-0.778c0,-0.033 -0.004,-0.081 -0.012,-0.146c-0.008,-0.065 -0.004,-0.154 0.012,-0.268l0,-1.069c-0.032,-0.244 -0.073,-0.414 -0.121,-0.511c-0.146,-0.227 -0.333,-0.373 -0.56,-0.438l-0.073,-0.048c0.017,-0.016 0.025,-0.033 0.025,-0.049c-0,-0.016 0.008,-0.024 0.024,-0.024l0.146,-0.025l3.112,0c0.016,0 0.057,-0.004 0.121,-0.012c0.065,-0.008 0.114,0.012 0.146,0.061c0.049,-0.081 0.114,-0.089 0.195,-0.024c0.048,-0.049 0.125,-0.061 0.231,-0.037c0.105,0.025 0.174,0.029 0.206,0.012l0.073,-0.024c0.033,0 0.09,0.041 0.171,0.122c0.032,0.048 0.081,0.097 0.145,0.146c0.065,0.048 0.106,0.089 0.122,0.121c-0,0 0.065,0.097 0.194,0.292c0.033,0.065 0.077,0.134 0.134,0.207c0.057,0.072 0.101,0.141 0.134,0.206c0.113,0.146 0.239,0.328 0.377,0.547c0.138,0.219 0.247,0.385 0.328,0.499c0.032,0.064 0.085,0.145 0.158,0.243c0.073,0.097 0.126,0.186 0.158,0.267l0.462,0.657c0.081,0.162 0.17,0.291 0.267,0.389c0.049,0.048 0.102,0.121 0.158,0.218c0.057,0.098 0.11,0.179 0.158,0.244c0.081,0.081 0.158,0.186 0.231,0.316c0.073,0.129 0.134,0.235 0.183,0.316c0.097,0.129 0.332,0.486 0.705,1.069c0.081,0.098 0.227,0.308 0.437,0.632c0.162,0.244 0.3,0.43 0.414,0.56c0.162,0.21 0.3,0.421 0.413,0.632l0.219,0.267c0.113,0.146 0.186,0.268 0.219,0.365l0.073,0.121l-0,-7.317c-0,-0.227 -0.041,-0.398 -0.122,-0.511c-0.13,-0.227 -0.308,-0.373 -0.535,-0.438c0,-0.016 -0.008,-0.024 -0.024,-0.024c-0.016,0 -0.033,-0.008 -0.049,-0.024c0,-0.016 0.008,-0.033 0.024,-0.049c0.017,-0.016 0.033,-0.024 0.049,-0.024c0.016,-0.016 0.049,-0.025 0.097,-0.025l2.261,0c0.065,0 0.106,0.009 0.122,0.025c0.016,-0 0.024,0.008 0.024,0.024c0,0.016 0.008,0.033 0.025,0.049l-0.073,0.048c-0.276,0.081 -0.446,0.227 -0.511,0.438c-0.081,0.113 -0.122,0.284 -0.122,0.511l0,0.34c0,0.081 -0.004,0.194 -0.012,0.34c-0.008,0.146 -0.004,0.276 0.012,0.389c0,0.195 -0.016,0.333 -0.048,0.414l-0,1.556c0.032,0.745 0.048,1.588 0.048,2.528l0,3.306l0.025,0.025l-0,0.948c-0.016,0.048 -0.02,0.101 -0.012,0.158c0.008,0.057 0.004,0.101 -0.013,0.134l0,0.048c0.017,0.033 0.021,0.077 0.013,0.134c-0.008,0.057 -0.004,0.101 0.012,0.134l-0,1.337c-0,0.097 -0.008,0.154 -0.025,0.17c-0.048,0.178 -0.097,0.267 -0.145,0.267c-0.049,0.017 -0.114,0.017 -0.195,0l-0.535,0c-0.065,0.017 -0.113,0.017 -0.146,0l-0.705,0c-0.048,0 -0.081,-0.008 -0.097,-0.024l-0.17,0l-0.486,-0.024c-0.017,-0 -0.057,-0.037 -0.122,-0.11c-0.065,-0.073 -0.105,-0.117 -0.121,-0.133c-0.26,-0.373 -0.454,-0.681 -0.584,-0.924c-0.292,-0.438 -0.47,-0.721 -0.535,-0.851c-0.081,-0.114 -0.186,-0.284 -0.316,-0.511c-0.097,-0.178 -0.211,-0.364 -0.34,-0.559c-0.097,-0.194 -0.178,-0.34 -0.243,-0.437c-0.017,-0.033 -0.053,-0.086 -0.11,-0.158c-0.056,-0.073 -0.077,-0.15 -0.061,-0.231c-0.081,-0.049 -0.141,-0.118 -0.182,-0.207c-0.04,-0.089 -0.077,-0.158 -0.109,-0.207c-0.049,-0.032 -0.081,-0.081 -0.097,-0.146c-0.017,-0.064 -0.041,-0.113 -0.073,-0.145c-0.033,-0.033 -0.065,-0.077 -0.098,-0.134c-0.032,-0.057 -0.065,-0.102 -0.097,-0.134c-0.097,-0.13 -0.178,-0.255 -0.243,-0.377c-0.065,-0.121 -0.138,-0.239 -0.219,-0.352c-0.081,-0.13 -0.186,-0.296 -0.316,-0.499c-0.13,-0.202 -0.235,-0.385 -0.316,-0.547c-0.049,-0.097 -0.105,-0.194 -0.17,-0.291c-0.065,-0.098 -0.13,-0.195 -0.195,-0.292c-0.097,-0.13 -0.162,-0.235 -0.194,-0.316c-0.065,-0.114 -0.15,-0.247 -0.255,-0.401c-0.106,-0.154 -0.183,-0.288 -0.231,-0.402c-0.017,-0.048 -0.057,-0.113 -0.122,-0.194c-0.065,-0.081 -0.105,-0.146 -0.121,-0.195c-0.082,-0.081 -0.159,-0.198 -0.231,-0.352c-0.073,-0.154 -0.142,-0.272 -0.207,-0.353l-0.34,-0.461c-0.13,-0.227 -0.252,-0.398 -0.365,-0.511c-0.114,-0.146 -0.17,-0.227 -0.17,-0.243c-0.017,-0.033 -0.045,-0.061 -0.085,-0.085c-0.041,-0.025 -0.069,-0.053 -0.086,-0.085l0,8.728c-0.016,0.162 -0.02,0.308 -0.012,0.437c0.008,0.13 0.012,0.235 0.012,0.316l0,0.365c0,0.13 0.049,0.292 0.146,0.486c0.081,0.195 0.252,0.332 0.511,0.414c0.016,-0 0.028,0.008 0.036,0.024c0.008,0.016 0.021,0.024 0.037,0.024c-0.016,0.016 -0.024,0.033 -0.024,0.049c-0,0.016 -0.009,0.024 -0.025,0.024c-0.016,0.016 -0.065,0.024 -0.146,0.024l-0.656,0c-0.065,0.033 -0.114,0.033 -0.146,0l-0.583,0c-0.049,0.033 -0.09,0.033 -0.122,0l-0.705,0l-0.146,-0.024Z" style="fill:#58a4b0;fill-rule:nonzero;"/><path d="M55.121,83.784l-0.292,-0c-0.064,-0.016 -0.137,-0.029 -0.218,-0.037c-0.081,-0.008 -0.154,-0.02 -0.219,-0.036c-0.049,-0 -0.081,-0.008 -0.097,-0.024c-0.098,-0.017 -0.244,-0.057 -0.438,-0.122c-0.162,-0.049 -0.251,-0.073 -0.268,-0.073c-0.032,-0.016 -0.072,-0.032 -0.121,-0.049c-0.049,-0.016 -0.089,-0.032 -0.122,-0.048l-0.316,-0.146c-0.227,-0.13 -0.397,-0.235 -0.51,-0.316c-0.065,-0.065 -0.122,-0.105 -0.17,-0.122l-0.098,-0.097c-0.016,-0.016 -0.036,-0.028 -0.06,-0.036c-0.025,-0.008 -0.045,-0.021 -0.061,-0.037c-0,0 -0.025,-0.024 -0.073,-0.073c-0.097,-0.065 -0.178,-0.15 -0.243,-0.255c-0.065,-0.105 -0.106,-0.174 -0.122,-0.207c-0.065,-0.081 -0.121,-0.186 -0.17,-0.316c-0.049,-0.129 -0.089,-0.227 -0.122,-0.291c0,-0.017 0.004,-0.041 0.013,-0.073c0.008,-0.033 -0.004,-0.057 -0.037,-0.073c0,-0.081 -0.008,-0.158 -0.024,-0.231c-0.016,-0.073 -0.033,-0.142 -0.049,-0.207c-0.032,-0.162 -0.048,-0.276 -0.048,-0.34c0.016,-0.065 0.02,-0.122 0.012,-0.171c-0.008,-0.048 -0.012,-0.089 -0.012,-0.121c-0,-0.049 0.004,-0.101 0.012,-0.158c0.008,-0.057 0.004,-0.126 -0.012,-0.207c-0,-0.048 0.008,-0.097 0.024,-0.146c0.016,-0.048 0.024,-0.105 0.024,-0.17c0,-0.065 0.033,-0.162 0.097,-0.292c0.065,-0.178 0.171,-0.34 0.316,-0.486l0.073,-0.121c0.049,-0.049 0.118,-0.098 0.207,-0.146c0.089,-0.049 0.158,-0.089 0.207,-0.122c0.016,-0.016 0.04,-0.024 0.073,-0.024c0.032,-0 0.056,-0.008 0.073,-0.024c0.032,-0.017 0.077,-0.025 0.133,-0.025c0.057,0 0.126,-0.016 0.207,-0.048l0.097,-0l0.146,-0.025c0.032,0 0.057,0.008 0.073,0.025c0.016,0.016 0.04,0.024 0.073,0.024l0.219,-0c0.048,-0 0.089,0.008 0.121,0.024c0.049,0.049 0.098,0.057 0.146,0.025c0.081,-0 0.13,0.024 0.146,0.073c0.065,0.064 0.122,0.105 0.17,0.121c0.065,0.016 0.13,0.073 0.195,0.17c0.065,0.081 0.146,0.203 0.243,0.365l0.121,0.365c0,0.048 0.008,0.081 0.025,0.097l-0.025,0.073c0,0.016 -0.004,0.036 -0.012,0.061c-0.008,0.024 -0.004,0.052 0.012,0.085c0.017,0.016 0.025,0.048 0.025,0.097c-0.033,0.065 -0.049,0.113 -0.049,0.146c0,0.048 -0.016,0.101 -0.049,0.158c-0.032,0.057 -0.056,0.109 -0.072,0.158l-0.049,0.097c-0.065,0.097 -0.122,0.195 -0.17,0.292c-0.049,0.097 -0.098,0.186 -0.146,0.267l-0.097,0.122c-0.017,0.048 -0.037,0.105 -0.061,0.17c-0.025,0.065 -0.037,0.122 -0.037,0.17c0,0 -0.008,0.008 -0.024,0.025c-0.032,0.064 -0.049,0.17 -0.049,0.316c0.017,0.21 0.09,0.389 0.219,0.534c0.13,0.146 0.268,0.26 0.414,0.341c0.129,0.065 0.243,0.097 0.34,0.097c0.081,0 0.235,0.016 0.462,0.049c0.113,0.032 0.211,0.024 0.292,-0.025c0.048,-0.016 0.137,-0.024 0.267,-0.024c0.227,0 0.454,-0.073 0.681,-0.219c0.048,-0.032 0.17,-0.121 0.364,-0.267c0.211,-0.178 0.406,-0.454 0.584,-0.827c-0,-0.016 0.024,-0.073 0.073,-0.17c-0,-0.097 0.008,-0.162 0.024,-0.194c0.033,-0.098 0.045,-0.203 0.037,-0.317c-0.009,-0.113 -0.013,-0.194 -0.013,-0.243c0,-0.048 -0.016,-0.121 -0.048,-0.218l-0,-0.049c-0.016,-0.13 -0.081,-0.284 -0.195,-0.462l-0.218,-0.243c-0.065,-0.065 -0.106,-0.122 -0.122,-0.17c-0.081,-0.065 -0.158,-0.126 -0.231,-0.183c-0.073,-0.056 -0.142,-0.109 -0.207,-0.158c-0.081,-0.048 -0.166,-0.097 -0.255,-0.146c-0.089,-0.048 -0.174,-0.105 -0.255,-0.17l-0.341,-0.17l-0.316,-0.146c-0.048,-0.032 -0.105,-0.061 -0.17,-0.085c-0.065,-0.024 -0.129,-0.061 -0.194,-0.109c-0.162,-0.081 -0.252,-0.13 -0.268,-0.146c-0.162,-0.081 -0.251,-0.13 -0.267,-0.146l-0.632,-0.389c-0.049,-0.032 -0.106,-0.065 -0.17,-0.097c-0.065,-0.033 -0.122,-0.065 -0.171,-0.098l-0.291,-0.218c-0.211,-0.146 -0.519,-0.422 -0.924,-0.827c-0.097,-0.081 -0.227,-0.251 -0.389,-0.51l-0.219,-0.365l-0.122,-0.365c-0.016,-0.081 -0.024,-0.178 -0.024,-0.292c0,-0.081 -0.016,-0.17 -0.049,-0.267l0,-0.073c0,-0.097 -0.004,-0.211 -0.012,-0.34c-0.008,-0.13 -0.004,-0.276 0.012,-0.438c0,-0.13 0.017,-0.227 0.049,-0.292l0,-0.073c0,-0.081 0.008,-0.162 0.024,-0.243c0.017,-0.081 0.025,-0.154 0.025,-0.219c0.032,-0.032 0.056,-0.081 0.073,-0.145c0.016,-0.065 0.024,-0.106 0.024,-0.122c-0,-0.049 0.016,-0.105 0.049,-0.17c0.226,-0.405 0.389,-0.673 0.486,-0.802l0.097,-0.146l0.34,-0.316c0.195,-0.195 0.414,-0.365 0.657,-0.511c0.113,-0.081 0.283,-0.162 0.51,-0.243c0.098,-0.049 0.26,-0.105 0.487,-0.17c0.048,-0.016 0.093,-0.033 0.133,-0.049c0.041,-0.016 0.077,-0.032 0.11,-0.048c0.178,-0.065 0.291,-0.106 0.34,-0.122l0.316,-0l0.292,-0.073c0.081,-0.032 0.154,-0.032 0.219,0c0.032,0.032 0.065,0.032 0.097,0c0.032,-0.016 0.061,-0.02 0.085,-0.012c0.024,0.008 0.053,0.004 0.085,-0.012c0.065,-0.016 0.142,-0.025 0.231,-0.025l0.255,0c0.033,0 0.057,-0.008 0.073,-0.024c0,-0.032 0.033,-0.032 0.098,0c0.064,0.016 0.141,0.024 0.231,0.024l0.182,0l0.219,0.025c0.016,-0 0.052,-0.004 0.109,-0.012c0.057,-0.009 0.101,0.004 0.134,0.036l0.048,0c0.049,0.016 0.106,0.024 0.171,0.024c0.064,0 0.121,0.008 0.17,0.025c0.032,-0 0.081,0.004 0.146,0.012c0.064,0.008 0.121,0.028 0.17,0.061l0.121,-0c0.049,-0 0.122,0.016 0.219,0.048l0.049,0.025c0.065,0.048 0.178,0.089 0.34,0.121l0.073,0.024c0.097,0.065 0.178,0.106 0.243,0.122c0.049,0.016 0.102,0.041 0.158,0.073c0.057,0.032 0.118,0.057 0.183,0.073l0.364,0.292c0.114,0.081 0.268,0.218 0.462,0.413c0.016,0.049 0.041,0.085 0.073,0.109c0.033,0.025 0.057,0.053 0.073,0.085c0.016,0.033 0.045,0.073 0.085,0.122c0.041,0.049 0.069,0.097 0.085,0.146c0.098,0.129 0.162,0.235 0.195,0.316c-0,0.049 0.016,0.105 0.048,0.17c0.017,0.049 0.033,0.101 0.049,0.158c0.016,0.057 0.032,0.109 0.049,0.158c0.032,0.097 0.048,0.162 0.048,0.195c0,0.081 0.008,0.137 0.025,0.17c0.016,0.065 0.024,0.17 0.024,0.316c-0,0.032 0.008,0.069 0.024,0.109c0.016,0.041 0.016,0.077 0,0.11l-0.073,0.51c-0.081,0.276 -0.219,0.551 -0.413,0.827c-0.211,0.243 -0.357,0.397 -0.438,0.462c-0.032,0.016 -0.073,0.032 -0.121,0.048c-0.049,0.017 -0.089,0.033 -0.122,0.049c-0.065,0.049 -0.146,0.073 -0.243,0.073c-0.065,-0 -0.162,0.016 -0.292,0.049c-0.081,0.032 -0.145,0.024 -0.194,-0.025c-0.016,0 -0.028,-0.008 -0.037,-0.024c-0.008,-0.016 -0.028,-0.008 -0.06,0.024l-0.073,-0.024c-0.049,-0 -0.11,-0.012 -0.183,-0.037c-0.073,-0.024 -0.141,-0.044 -0.206,-0.06l-0.049,-0.025c-0.049,-0.048 -0.097,-0.089 -0.146,-0.121c-0.048,-0.033 -0.097,-0.073 -0.146,-0.122c-0.081,-0.032 -0.137,-0.089 -0.17,-0.17c-0.032,-0.049 -0.069,-0.093 -0.109,-0.134c-0.041,-0.04 -0.077,-0.085 -0.11,-0.133l-0.097,-0.243c-0.032,-0.163 -0.049,-0.292 -0.049,-0.389c0,-0.211 0.041,-0.406 0.122,-0.584c0.032,-0.097 0.073,-0.162 0.122,-0.194c0.081,-0.13 0.145,-0.211 0.194,-0.244l0.122,-0.073c-0,-0.016 0.008,-0.024 0.024,-0.024c0.016,0 0.024,-0.008 0.024,-0.024c0.016,-0.033 0.057,-0.081 0.122,-0.146c0.129,-0.146 0.227,-0.316 0.292,-0.511c0.016,-0.048 0.024,-0.137 0.024,-0.267c-0.016,-0.049 -0.037,-0.101 -0.061,-0.158c-0.024,-0.057 -0.053,-0.118 -0.085,-0.182c-0.081,-0.162 -0.186,-0.276 -0.316,-0.341c-0.097,-0.081 -0.251,-0.146 -0.462,-0.194c-0.049,-0 -0.13,-0.012 -0.243,-0.037c-0.114,-0.024 -0.211,-0.036 -0.292,-0.036c-0.081,-0.016 -0.219,-0.024 -0.413,-0.024l-0.097,-0c-0.065,-0 -0.146,0.008 -0.243,0.024c-0.098,0.016 -0.187,0.016 -0.268,-0c-0.049,-0 -0.089,0.016 -0.121,0.048c-0.227,0.098 -0.389,0.187 -0.487,0.268c-0.081,0.032 -0.129,0.073 -0.146,0.121l-0.024,0.025c-0.065,0.048 -0.126,0.117 -0.182,0.206c-0.057,0.09 -0.102,0.15 -0.134,0.183c-0.065,0.097 -0.122,0.227 -0.17,0.389c-0.033,0.032 -0.065,0.121 -0.097,0.267l-0.049,0.316l-0,0.049c-0.032,0.032 -0.045,0.077 -0.036,0.134c0.008,0.056 0.012,0.101 0.012,0.133l0.024,0.122c0.081,0.292 0.13,0.454 0.146,0.486c0.016,0.081 0.057,0.154 0.121,0.219c0.114,0.194 0.227,0.348 0.341,0.462l0.389,0.292l0.535,0.34l0.51,0.267c0.292,0.162 0.511,0.276 0.657,0.341c0.259,0.146 0.429,0.235 0.51,0.267c0.13,0.049 0.251,0.114 0.365,0.195c0.048,0.032 0.243,0.162 0.292,0.194c0.113,0.081 0.178,0.122 0.194,0.122l0.195,0.17l0.243,0.194c0.048,0 0.073,0.008 0.073,0.025c0.21,0.162 0.356,0.3 0.437,0.413c0.097,0.097 0.154,0.17 0.17,0.219l0.098,0.073c0.178,0.194 0.356,0.47 0.535,0.826c0.032,0.098 0.048,0.179 0.048,0.243c0.049,0.146 0.073,0.292 0.073,0.438l0.024,0.17c0.017,0.049 0.025,0.106 0.025,0.17l-0,0.608l-0.025,0.438c0,0.032 -0.024,0.121 -0.073,0.267c0,0.065 -0.008,0.114 -0.024,0.146l-0.024,0.17c-0,0.114 -0.008,0.195 -0.024,0.243c-0.017,0.065 -0.057,0.146 -0.122,0.244l-0.146,0.243c-0.113,0.194 -0.251,0.381 -0.413,0.559c-0.049,0.081 -0.146,0.194 -0.292,0.34c-0.065,0.081 -0.15,0.158 -0.255,0.231c-0.106,0.073 -0.183,0.126 -0.231,0.158c-0.13,0.081 -0.324,0.187 -0.584,0.316l-0.413,0.146c-0.178,0.049 -0.292,0.089 -0.34,0.122c-0.033,0.032 -0.081,0.056 -0.146,0.073c-0.065,0.016 -0.106,0.024 -0.122,0.024l-0.437,0.073c-0.162,-0 -0.284,0.016 -0.365,0.049c-0,0.016 -0.024,0.024 -0.073,0.024c-0.065,-0 -0.105,-0.008 -0.122,-0.024c-0.032,-0.017 -0.06,-0.017 -0.085,-0c-0.024,0.016 -0.044,0.024 -0.06,0.024l-0.365,0.024l-0.729,0l-0.268,-0.024Z" style="fill:#58a4b0;fill-rule:nonzero;"/></g><g><path d="M10.053,102.273c-0.193,-0.022 -0.45,-0.033 -0.771,-0.033c-0.064,0 -0.128,-0.021 -0.193,-0.064c-0.064,-0.043 -0.117,-0.053 -0.16,-0.032l-0.096,0c-0.107,0 -0.204,-0.011 -0.289,-0.032c-0.043,-0.021 -0.097,-0.032 -0.161,-0.032c-0.064,-0 -0.118,-0.022 -0.16,-0.064c-0.386,-0.022 -0.792,-0.161 -1.22,-0.418c-0.15,-0.064 -0.321,-0.192 -0.514,-0.385c-0.385,-0.342 -0.696,-0.813 -0.931,-1.413c-0.128,-0.406 -0.225,-0.791 -0.289,-1.155c-0.021,-0.086 -0.032,-0.209 -0.032,-0.369c-0,-0.161 -0.011,-0.295 -0.032,-0.402c-0,-0.085 0.016,-0.182 0.048,-0.289c0.032,-0.107 0.048,-0.214 0.048,-0.321c0,-0.064 0.016,-0.144 0.048,-0.241c0.032,-0.096 0.059,-0.176 0.081,-0.24c0.107,-0.343 0.16,-0.525 0.16,-0.546l0,-0.032l0.032,-0c0.022,-0.022 0.032,-0.054 0.032,-0.097c0,-0.042 0.011,-0.074 0.032,-0.096l0.033,-0.064l0.032,-0c-0,-0.043 0.01,-0.07 0.032,-0.08c0.021,-0.011 0.032,-0.027 0.032,-0.049c0.171,-0.214 0.326,-0.374 0.465,-0.481c0.139,-0.107 0.316,-0.193 0.53,-0.257c0.257,-0.086 0.482,-0.128 0.674,-0.128c0.022,-0 0.059,0.016 0.113,0.048c0.053,0.032 0.091,0.016 0.112,-0.048c0.021,0.042 0.075,0.064 0.161,0.064c0.085,-0 0.139,0.011 0.16,0.032c0.086,0.043 0.182,0.064 0.289,0.064l0.161,0.161c0.021,-0 0.037,0.01 0.048,0.032c0.01,0.021 0.026,0.032 0.048,0.032c0.107,0.043 0.203,0.118 0.289,0.225c0.085,0.107 0.139,0.182 0.16,0.224c0.107,0.129 0.188,0.284 0.241,0.466c0.054,0.182 0.102,0.316 0.145,0.401c-0.022,0 -0.027,0.022 -0.017,0.064c0.011,0.043 -0.005,0.075 -0.048,0.097c0.043,0.021 0.07,0.053 0.081,0.096c0.01,0.043 -0.006,0.075 -0.049,0.096c-0.021,0.043 -0.032,0.086 -0.032,0.129l0,0.096c-0.021,0.022 -0.032,0.048 -0.032,0.08c0,0.032 -0.021,0.07 -0.064,0.113c-0.021,0.043 -0.037,0.096 -0.048,0.16c-0.011,0.064 -0.038,0.107 -0.08,0.129c-0.022,0.021 -0.049,0.059 -0.081,0.112c-0.032,0.054 -0.069,0.102 -0.112,0.145c-0.021,0.042 -0.059,0.085 -0.112,0.128c-0.054,0.043 -0.102,0.107 -0.145,0.193c-0.128,0.149 -0.289,0.246 -0.481,0.288c-0.257,0.108 -0.482,0.161 -0.675,0.161c-0.149,0 -0.321,-0.021 -0.513,-0.064c-0.193,-0.043 -0.332,-0.064 -0.418,-0.064c-0.128,-0 -0.214,0.037 -0.257,0.112c-0.042,0.075 -0.053,0.209 -0.032,0.401c0.107,0.386 0.279,0.749 0.514,1.092c0.278,0.406 0.653,0.663 1.124,0.77l0.321,0.097l0.257,0.032l0.16,-0c0.129,-0 0.343,-0.043 0.642,-0.129c0.171,-0.042 0.385,-0.171 0.642,-0.385c0.193,-0.128 0.428,-0.407 0.707,-0.835c0.064,-0.107 0.123,-0.23 0.176,-0.369c0.054,-0.139 0.102,-0.241 0.145,-0.305c0.021,-0.085 0.037,-0.187 0.048,-0.305c0.011,-0.118 0.016,-0.219 0.016,-0.305c-0,0.022 0.021,-0.096 0.064,-0.353l0,-12.007c-0.043,-0.343 -0.086,-0.557 -0.128,-0.642c-0.022,-0.129 -0.07,-0.236 -0.145,-0.321c-0.075,-0.086 -0.166,-0.171 -0.273,-0.257c-0.064,-0.107 -0.042,-0.182 0.065,-0.225l5.297,0c0.085,0.022 0.107,0.096 0.064,0.225c-0.128,0.086 -0.225,0.176 -0.289,0.273c-0.064,0.096 -0.118,0.198 -0.16,0.305l-0.097,0.642l0,6.902l0.032,0.129c0,0.235 -0.01,0.428 -0.032,0.578l0,1.894l-0.064,0.257c0,0.171 -0.011,0.369 -0.032,0.594c-0.022,0.224 -0.022,0.422 -0,0.594c-0.043,0.064 -0.064,0.176 -0.064,0.337c-0,0.16 -0.011,0.262 -0.032,0.305c-0.043,0.321 -0.097,0.556 -0.161,0.706c-0.021,0.214 -0.086,0.439 -0.193,0.674l-0.417,0.739c-0.449,0.556 -0.749,0.899 -0.899,1.027c-0.278,0.278 -0.685,0.589 -1.22,0.931c-0.107,0.064 -0.241,0.112 -0.401,0.144c-0.161,0.033 -0.273,0.059 -0.337,0.081c-0.043,-0 -0.107,0.005 -0.193,0.016c-0.085,0.01 -0.15,0.037 -0.192,0.08c-0.022,0.021 -0.054,0.032 -0.097,0.032c-0.021,0 -0.064,-0.005 -0.128,-0.016c-0.064,-0.011 -0.118,0.016 -0.161,0.08l-0.032,0l-0.16,-0.032c-0.107,0 -0.214,0.016 -0.321,0.048c-0.107,0.032 -0.204,0.049 -0.289,0.049Z" style="fill:#eb5e55;fill-rule:nonzero;"/><path d="M16.602,102.24c-0.043,0 -0.075,-0.021 -0.096,-0.064c-0.022,-0.043 -0.011,-0.085 0.032,-0.128c0.085,-0.086 0.166,-0.15 0.241,-0.193c0.074,-0.043 0.144,-0.096 0.208,-0.16l0.129,-0.257c0.042,-0.086 0.064,-0.289 0.064,-0.61l-0,-1.156l-0.032,-1.188c-0,-0.492 0.01,-0.835 0.032,-1.027c-0.022,-0.15 -0.027,-0.337 -0.016,-0.562c0.011,-0.225 0.016,-0.391 0.016,-0.498c-0,-0.428 -0.011,-0.652 -0.032,-0.674l-0,-0.738l0.032,-0.578l-0,-0.321l-0.032,-3.724c0.021,-0.172 0.032,-0.471 0.032,-0.899l-0,-0.803c-0.043,-0.257 -0.043,-0.503 -0,-0.738l-0,-1.156c-0.022,-0.171 -0.032,-0.449 -0.032,-0.835l-0,-0.096c-0,-0.15 -0.032,-0.268 -0.097,-0.353l-0.064,-0.193c-0.064,-0.064 -0.134,-0.123 -0.208,-0.176c-0.075,-0.054 -0.156,-0.123 -0.241,-0.209c-0.043,-0.043 -0.054,-0.086 -0.032,-0.129c0.021,-0.042 0.053,-0.064 0.096,-0.064l0.128,0l0.418,-0.032l0.192,0c0.343,0 0.557,0.011 0.642,0.032l2.601,0c0.428,-0.064 0.696,-0.075 0.803,-0.032l0.931,0.032c0.107,0.022 0.449,0.032 1.027,0.032c0.342,0 0.546,-0.01 0.61,-0.032c0.128,0 0.246,0.011 0.353,0.032c0.107,0.022 0.214,0.032 0.321,0.032l0.257,0c0.193,0 0.332,-0.021 0.417,-0.064l2.408,0c0.086,0 0.129,0.043 0.129,0.129c0.021,0.214 0.026,0.401 0.016,0.562c-0.011,0.16 -0.016,0.294 -0.016,0.401c-0,0.192 0.021,0.503 0.064,0.931c0.021,0.235 0.027,0.433 0.016,0.594c-0.011,0.16 -0.016,0.294 -0.016,0.401c-0,0.022 0.005,0.048 0.016,0.08c0.011,0.032 -0.016,0.07 -0.08,0.113c-0.065,0.021 -0.107,0.01 -0.129,-0.032c-0.021,-0.043 -0.043,-0.075 -0.064,-0.097l-0,-0.064c-0.128,-0.492 -0.428,-0.856 -0.899,-1.091c-0.171,-0.043 -0.31,-0.097 -0.417,-0.161c-0.043,-0.021 -0.123,-0.043 -0.241,-0.064c-0.118,-0.022 -0.198,-0.054 -0.241,-0.096c-0.128,-0.022 -0.283,-0.054 -0.465,-0.097c-0.182,-0.043 -0.327,-0.064 -0.434,-0.064c-0.257,0.021 -0.481,0.027 -0.674,0.016c-0.193,-0.011 -0.353,-0.016 -0.482,-0.016c-0.128,-0 -0.289,0.005 -0.481,0.016c-0.193,0.011 -0.418,0.005 -0.674,-0.016c-0.129,-0.021 -0.3,-0.011 -0.514,0.032c-0.214,0.043 -0.417,0.064 -0.61,0.064l-0.096,0l-0,0.963l0.032,1.188c-0,0.514 -0.011,0.867 -0.032,1.06c0.021,0.15 0.026,0.337 0.016,0.562c-0.011,0.224 -0.016,0.39 -0.016,0.497c-0,0.022 -0.006,0.139 -0.016,0.353c-0.011,0.214 -0.006,0.332 0.016,0.354l0.032,0.738c-0,0.128 -0.011,0.284 -0.032,0.465c-0.022,0.182 -0.022,0.327 -0,0.434l1.798,-0c0.128,-0 0.246,-0.011 0.353,-0.032c0.107,-0.022 0.203,-0.043 0.289,-0.064c0.235,-0.043 0.481,-0.236 0.738,-0.578c0.021,-0 0.032,-0.022 0.032,-0.065l0,-0.128c0.064,-0.064 0.118,-0.096 0.161,-0.096c0.021,-0 0.053,0.043 0.096,0.128l-0,2.857c-0,0.022 0.005,0.059 0.016,0.113c0.011,0.053 -0.016,0.08 -0.08,0.08c-0.107,0 -0.171,-0.053 -0.193,-0.16c0,-0.065 -0.021,-0.107 -0.064,-0.129c-0.364,-0.364 -0.728,-0.588 -1.092,-0.674c-0.107,-0.021 -0.267,-0.032 -0.481,-0.032c-0.214,-0.022 -0.423,-0.027 -0.626,-0.016c-0.204,0.01 -0.412,0.005 -0.626,-0.016l-0.321,0.032l-0,0.417c-0,0.193 0.01,0.428 0.032,0.707c0.021,0.278 0.021,0.502 -0,0.674l-0.032,0.77l-0.032,0.931l-0,0.803c0.042,0.235 0.042,0.449 -0,0.642l-0,1.284l0.032,0.385l0.096,0c0.171,0 0.369,0.016 0.594,0.049c0.225,0.032 0.401,0.037 0.53,0.016l2.375,-0c0.107,-0 0.241,-0.022 0.402,-0.065c0.16,-0.042 0.305,-0.064 0.433,-0.064c0.064,-0.064 0.145,-0.101 0.241,-0.112c0.096,-0.011 0.176,-0.027 0.241,-0.048c0.043,-0.043 0.112,-0.081 0.208,-0.113c0.097,-0.032 0.166,-0.059 0.209,-0.08c0.471,-0.235 0.771,-0.61 0.899,-1.124l-0,-0.032c0.021,-0.021 0.043,-0.053 0.064,-0.096c0.022,-0.043 0.064,-0.054 0.129,-0.032c0.064,-0 0.091,0.021 0.08,0.064c-0.011,0.043 -0.016,0.075 -0.016,0.096c-0,0.129 0.005,0.273 0.016,0.434c0.011,0.16 0.005,0.348 -0.016,0.562c-0.043,0.278 -0.064,0.685 -0.064,1.22l-0,0.706c-0,0.064 -0.043,0.096 -0.129,0.096l-2.408,0c-0.192,-0.064 -0.417,-0.075 -0.674,-0.032c-0.085,0 -0.198,0.011 -0.337,0.032c-0.139,0.022 -0.251,0.022 -0.337,0c-0.043,-0.021 -0.086,-0.027 -0.128,-0.016c-0.043,0.011 -0.086,0.006 -0.129,-0.016c-0.085,-0.043 -0.182,-0.043 -0.289,0c-0.15,0.043 -0.337,0.059 -0.562,0.048c-0.224,-0.01 -0.401,-0.016 -0.529,-0.016l-1.734,0c-0.193,0 -0.396,0.011 -0.61,0.032c-0.214,0.022 -0.449,0.032 -0.706,0.032l-1.285,0.033l-1.284,-0.033l-0.096,0Z" style="fill:#eb5e55;fill-rule:nonzero;"/><path d="M34.067,102.176l-0.642,-0.064l-0.771,-0.193c-0.535,-0.192 -0.974,-0.406 -1.316,-0.642c-0.728,-0.471 -1.231,-1.123 -1.509,-1.958l-0.064,-0.257l-0.032,-0.064l-0,-0.032c-0.15,-0.514 -0.225,-1.37 -0.225,-2.569c-0.021,-0.406 -0.027,-0.759 -0.016,-1.059c0.011,-0.3 0.016,-0.557 0.016,-0.771l0,-8.475c0,-0.043 -0.032,-0.257 -0.096,-0.642c-0.022,-0.15 -0.059,-0.262 -0.113,-0.337c-0.053,-0.075 -0.144,-0.156 -0.273,-0.241c-0.021,-0.022 -0.032,-0.059 -0.032,-0.113c0,-0.053 0.022,-0.08 0.065,-0.08c0.021,-0.021 0.16,-0.032 0.417,-0.032l0.225,0c0.364,0 0.567,0.011 0.61,0.032l2.825,0c0.064,-0.021 0.235,-0.032 0.514,-0.032l0.353,0c0.278,0 0.428,0.011 0.449,0.032c0.022,0 0.038,0.027 0.048,0.08c0.011,0.054 -0.005,0.091 -0.048,0.113c-0.171,0.15 -0.299,0.342 -0.385,0.578c-0.064,0.385 -0.096,0.599 -0.096,0.642l-0,12.071c-0,0.064 0.021,0.139 0.064,0.225l0.064,0.514c0.043,0.256 0.096,0.47 0.161,0.642c0.192,0.513 0.47,0.92 0.834,1.22c0.107,0.107 0.241,0.192 0.402,0.256c0.16,0.065 0.326,0.118 0.497,0.161c0.3,0.128 0.664,0.171 1.092,0.128c0.171,0 0.299,-0.021 0.385,-0.064l0.096,0c0.172,0 0.268,-0.021 0.289,-0.064l0.064,-0c0.107,-0 0.231,-0.016 0.37,-0.048c0.139,-0.032 0.24,-0.059 0.305,-0.08c0.321,-0.129 0.642,-0.311 0.963,-0.546c0.449,-0.278 0.728,-0.61 0.835,-0.995l0.192,-0.835c0.107,-0.514 0.161,-1.145 0.161,-1.894l-0,-10.755c-0,-0.257 -0.054,-0.471 -0.161,-0.643c-0.15,-0.278 -0.353,-0.46 -0.61,-0.545l-0.096,-0.065c0.021,-0.021 0.032,-0.042 0.032,-0.064c-0,-0.021 0.011,-0.032 0.032,-0.032c0.043,-0.021 0.096,-0.032 0.161,-0.032l0.802,0c0.064,-0.043 0.129,-0.043 0.193,0l0.738,0c0.129,-0.021 0.204,-0.021 0.225,0l0.835,0c0.064,0 0.107,0.011 0.128,0.032l0.032,0.096l-0.032,0.065c-0.321,0.107 -0.535,0.289 -0.642,0.545c-0.107,0.172 -0.16,0.354 -0.16,0.546l-0,0.129l-0.065,11.589l0,0.033c-0.043,0.128 -0.064,0.246 -0.064,0.353c0,0.021 0.005,0.069 0.016,0.144c0.011,0.075 -0.005,0.145 -0.048,0.209c-0.021,0.021 -0.027,0.064 -0.016,0.128c0.011,0.064 -0.005,0.118 -0.048,0.161c-0.022,0.214 -0.097,0.444 -0.225,0.69c-0.128,0.246 -0.203,0.401 -0.225,0.466c-0.085,0.192 -0.203,0.374 -0.353,0.545c-0.085,0.172 -0.214,0.343 -0.385,0.514c-0.3,0.3 -0.685,0.546 -1.156,0.738c-0.321,0.193 -0.631,0.321 -0.931,0.386c-0.128,0.064 -0.407,0.139 -0.835,0.224c-0.214,0.043 -0.449,0.059 -0.706,0.049c-0.257,-0.011 -0.428,-0.016 -0.514,-0.016c-0.321,0.021 -0.759,0.032 -1.316,0.032c-0.043,-0 -0.096,0.005 -0.16,0.016c-0.065,0.01 -0.15,0.005 -0.257,-0.016l-0.867,-0.129Z" style="fill:#eb5e55;fill-rule:nonzero;"/><path d="M53.683,102.24c-0,-0.085 0.091,-0.165 0.273,-0.24c0.182,-0.075 0.262,-0.166 0.241,-0.273c-0.065,-0.086 -0.15,-0.214 -0.257,-0.386c-0.107,-0.171 -0.193,-0.331 -0.257,-0.481l-0.225,-0.353c-0.043,-0.064 -0.102,-0.161 -0.176,-0.289c-0.075,-0.129 -0.134,-0.246 -0.177,-0.353l-0.289,-0.45l-0.193,-0.289c-0.064,-0.15 -0.289,-0.524 -0.674,-1.123l-0.192,-0.418l-0.321,-0.546l-0.771,-1.284c-0.043,-0.043 -0.064,-0.075 -0.064,-0.096c-0.064,0.086 -0.134,0.171 -0.209,0.257c-0.075,0.085 -0.144,0.192 -0.209,0.321c-0.107,0.15 -0.219,0.316 -0.337,0.497c-0.117,0.182 -0.251,0.37 -0.401,0.562c-0.15,0.193 -0.316,0.434 -0.498,0.723c-0.181,0.289 -0.337,0.519 -0.465,0.69c-0.3,0.364 -0.535,0.706 -0.706,1.027c-0.043,0.086 -0.102,0.177 -0.177,0.273c-0.075,0.096 -0.134,0.187 -0.177,0.273c-0.042,0.064 -0.107,0.145 -0.192,0.241c-0.086,0.096 -0.15,0.176 -0.193,0.241c0,0.021 -0.107,0.203 -0.321,0.545c-0.085,0.107 -0.128,0.289 -0.128,0.546c-0,0 0.032,0.032 0.096,0.096c0.064,0.065 0.107,0.097 0.128,0.097c0.043,0.021 0.065,0.064 0.065,0.128c0.021,0.064 -0.011,0.097 -0.097,0.097l-2.761,-0c-0.085,-0 -0.128,-0.033 -0.128,-0.097c-0,-0.064 0.043,-0.107 0.128,-0.128c0.214,-0.064 0.364,-0.161 0.45,-0.289c0.235,-0.171 0.428,-0.375 0.578,-0.61l1.059,-1.67l0.835,-1.155c0.342,-0.514 0.61,-0.899 0.803,-1.156c0.107,-0.15 0.214,-0.316 0.321,-0.498c0.107,-0.182 0.235,-0.369 0.385,-0.562c0.171,-0.256 0.289,-0.449 0.353,-0.577c0.043,-0.086 0.096,-0.172 0.16,-0.257c0.065,-0.086 0.118,-0.172 0.161,-0.257c0.064,-0.107 0.139,-0.22 0.225,-0.337c0.085,-0.118 0.16,-0.23 0.224,-0.337c0.043,-0.022 0.086,-0.075 0.129,-0.161c-0.086,-0.15 -0.214,-0.353 -0.385,-0.61l-0.386,-0.738l-0.642,-1.028c-0.043,-0.064 -0.085,-0.139 -0.128,-0.224c-0.043,-0.086 -0.086,-0.161 -0.129,-0.225l-0.192,-0.385c-0.193,-0.321 -0.289,-0.482 -0.289,-0.482c-0.043,-0.043 -0.086,-0.107 -0.129,-0.193l-0.16,-0.224c-0.086,-0.171 -0.161,-0.3 -0.225,-0.385l-0.289,-0.45l-0.513,-0.867c-0.086,-0.171 -0.161,-0.299 -0.225,-0.385c-0.022,-0.043 -0.054,-0.102 -0.096,-0.177c-0.043,-0.075 -0.086,-0.155 -0.129,-0.24c0,-0 -0.021,-0.022 -0.064,-0.065l-0.417,-0.674c-0.065,-0.064 -0.097,-0.107 -0.097,-0.128c0,-0.043 -0.016,-0.086 -0.048,-0.129c-0.032,-0.042 -0.059,-0.075 -0.08,-0.096l-0.257,-0.449l-0.257,-0.321l-0.289,-0.354c-0.171,-0.214 -0.305,-0.326 -0.401,-0.337c-0.096,-0.01 -0.145,-0.016 -0.145,-0.016c-0.085,0 -0.171,-0.064 -0.256,-0.192c-0.022,-0 -0.011,-0.022 0.032,-0.065c0.021,-0.021 0.096,-0.032 0.224,-0.032l1.83,0c0.172,-0.021 0.45,-0.032 0.835,-0.032l2.247,0c0.022,0 0.043,-0.005 0.065,-0.016c0.021,-0.011 0.053,-0.005 0.096,0.016l0.931,-0.032c0.021,0 0.048,-0.005 0.08,-0.016c0.032,-0.011 0.081,-0.005 0.145,0.016c0.021,0 0.043,0.005 0.064,0.016c0.021,0.011 0.032,0.048 0.032,0.112c0,0.022 -0.021,0.043 -0.064,0.065c-0.043,0.021 -0.139,0.053 -0.289,0.096c-0.15,0.043 -0.203,0.128 -0.161,0.257c0,0.021 0.022,0.075 0.065,0.16c0.085,0.107 0.181,0.252 0.289,0.434c0.107,0.182 0.192,0.326 0.256,0.433l0.225,0.353l0.417,0.835l0.289,0.45c0.236,0.449 0.461,0.834 0.675,1.155l-0,0.032l0.064,0.097l0.096,0.192l0.353,0.61c0.043,0.065 0.086,0.134 0.129,0.209c0.042,0.075 0.096,0.144 0.16,0.209c0.107,0.235 0.182,0.374 0.225,0.417c0.064,0.15 0.15,0.278 0.257,0.385l0.128,0.193l0.032,-0.064c0.065,-0.086 0.225,-0.257 0.482,-0.514c0.214,-0.449 0.439,-0.813 0.674,-1.091c0.107,-0.15 0.198,-0.284 0.273,-0.402c0.075,-0.118 0.144,-0.219 0.209,-0.305c0.214,-0.342 0.385,-0.599 0.513,-0.77c0.321,-0.364 0.557,-0.696 0.707,-0.996c0.042,-0.085 0.096,-0.171 0.16,-0.256c0.064,-0.086 0.118,-0.172 0.161,-0.257c0.042,-0.064 0.107,-0.15 0.192,-0.257c0.086,-0.107 0.161,-0.203 0.225,-0.289c0.171,-0.3 0.278,-0.471 0.321,-0.514c0.086,-0.085 0.128,-0.192 0.128,-0.321l0,-0.224c0,-0.065 -0.032,-0.107 -0.096,-0.129c-0.043,-0.043 -0.096,-0.064 -0.16,-0.064c-0.065,-0.021 -0.086,-0.054 -0.065,-0.096c0,-0.065 0.033,-0.097 0.097,-0.097l2.729,0c0.107,0 0.16,0.032 0.16,0.097c0,0.042 -0.043,0.075 -0.128,0.096c-0.129,0.021 -0.268,0.107 -0.418,0.257c-0.256,0.214 -0.47,0.439 -0.642,0.674c-0.321,0.578 -0.674,1.134 -1.059,1.669c-0.514,0.707 -1.038,1.477 -1.573,2.312c-0.064,0.107 -0.177,0.267 -0.337,0.481c-0.161,0.215 -0.295,0.407 -0.402,0.578c-0.042,0.065 -0.101,0.139 -0.176,0.225c-0.075,0.086 -0.145,0.193 -0.209,0.321c-0.021,0.129 -0.118,0.3 -0.289,0.514c-0.278,0.385 -0.428,0.599 -0.449,0.642l-0.193,0.321c0.128,0.214 0.235,0.375 0.321,0.482c0.343,0.599 0.492,0.856 0.45,0.77c0.128,0.278 0.321,0.61 0.577,0.995l0.225,0.418c0.064,0.085 0.118,0.166 0.161,0.24c0.042,0.075 0.085,0.145 0.128,0.209l0.385,0.642c0.043,0.064 0.086,0.161 0.129,0.289c-0,0 0.16,0.225 0.481,0.674l0.386,0.675c0.128,0.128 0.224,0.256 0.289,0.385c0.085,0.15 0.176,0.294 0.272,0.433c0.097,0.139 0.177,0.284 0.241,0.434c0.086,0.128 0.204,0.342 0.353,0.642c0.043,0.064 0.102,0.16 0.177,0.289c0.075,0.128 0.144,0.246 0.209,0.353l0.449,0.61c0.107,0.128 0.209,0.219 0.305,0.273c0.096,0.053 0.23,0.096 0.401,0.128c0.172,0.032 0.279,0.112 0.321,0.241l-0.032,0.064c-0.085,0.129 -0.257,0.187 -0.513,0.177c-0.257,-0.011 -0.396,-0.016 -0.418,-0.016l-4.27,-0c0,-0 -0.021,0.005 -0.064,0.016c-0.043,0.01 -0.075,0.005 -0.096,-0.016l-0.899,0.032l-0.257,0.032l-0.064,-0.129Z" style="fill:#eb5e55;fill-rule:nonzero;"/></g><path d="M65.37,47.961c-0.092,-3.666 -1.924,-6.962 -4.792,-9.226c-3.004,-2.372 -6.77,-3.26 -10.141,-4.948c-1.682,-0.842 -3.311,-1.874 -4.462,-3.382c-0.476,-0.625 -1.061,-1.28 -1.86,-1.47c-0.701,-0.166 -1.579,0.337 -1.718,1.056c-0.374,1.934 -0.375,3.97 -0.439,5.944c-0.036,1.13 -0.042,2.258 -0.103,3.387c-0.028,0.508 -0.062,1.015 -0.099,1.523c-0.033,0.45 -0.168,0.86 -0.148,1.308c0.044,0.996 -0.133,2.04 -0.218,3.041c-0.085,1.012 -0.162,2.025 -0.233,3.038c-0.154,2.212 -0.277,4.427 -0.421,6.64c-0.061,0.941 -0.085,1.887 -0.176,2.824c-0.041,0.417 -0.009,0.843 -0.064,1.266c-0.028,0.221 -0.027,0.87 -0.15,1.04c-0.119,0.165 -0.064,0.127 -0.321,0.073c-0.174,-0.036 -0.346,-0.113 -0.516,-0.166c-0.472,-0.149 -0.956,-0.263 -1.445,-0.34c-0.676,-0.105 -1.372,-0.149 -2.055,-0.092c-1.469,0.122 -3.072,0.803 -3.847,2.124c-0.967,1.649 -0.558,3.75 0.864,4.972c1.349,1.16 3.573,1.814 5.3,1.34c1.52,-0.418 2.785,-1.119 3.8,-2.355c1.72,-2.093 1.957,-4.608 2.202,-7.196c0.37,-3.9 0.565,-7.815 0.862,-11.721c0.06,-0.789 0.122,-1.579 0.206,-2.366c1.873,0.711 3.873,0.935 5.839,1.214c0.834,0.118 1.659,0.287 2.478,0.436c0.757,0.138 1.55,0.204 2.288,0.424c1.682,0.503 3.237,1.292 4.538,2.503c0.611,0.567 1.153,1.209 1.605,1.909c0.332,0.516 0.551,1.306 1.188,1.523c1.039,0.355 1.345,-0.644 1.691,-1.335c0.197,-0.391 0.119,-0.833 0.204,-1.254c0.116,-0.57 0.159,-1.152 0.143,-1.734Z" style="fill:#f2af29;fill-rule:nonzero;stroke:#fff;stroke-width:3.86px;"/><path d="M65.37,47.961c-0.092,-3.666 -1.924,-6.962 -4.792,-9.226c-3.004,-2.372 -6.77,-3.26 -10.141,-4.948c-1.682,-0.842 -3.311,-1.874 -4.462,-3.382c-0.476,-0.625 -1.061,-1.28 -1.86,-1.47c-0.701,-0.166 -1.579,0.337 -1.718,1.056c-0.374,1.934 -0.375,3.97 -0.439,5.944c-0.036,1.13 -0.042,2.258 -0.103,3.387c-0.028,0.508 -0.062,1.015 -0.099,1.523c-0.033,0.45 -0.168,0.86 -0.148,1.308c0.044,0.996 -0.133,2.04 -0.218,3.041c-0.085,1.012 -0.162,2.025 -0.233,3.038c-0.154,2.212 -0.277,4.427 -0.421,6.64c-0.061,0.941 -0.085,1.887 -0.176,2.824c-0.041,0.417 -0.009,0.843 -0.064,1.266c-0.028,0.221 -0.027,0.87 -0.15,1.04c-0.119,0.165 -0.064,0.127 -0.321,0.073c-0.174,-0.036 -0.346,-0.113 -0.516,-0.166c-0.472,-0.149 -0.956,-0.263 -1.445,-0.34c-0.676,-0.105 -1.372,-0.149 -2.055,-0.092c-1.469,0.122 -3.072,0.803 -3.847,2.124c-0.967,1.649 -0.558,3.75 0.864,4.972c1.349,1.16 3.573,1.814 5.3,1.34c1.52,-0.418 2.785,-1.119 3.8,-2.355c1.72,-2.093 1.957,-4.608 2.202,-7.196c0.37,-3.9 0.565,-7.815 0.862,-11.721c0.06,-0.789 0.122,-1.579 0.206,-2.366c1.873,0.711 3.873,0.935 5.839,1.214c0.834,0.118 1.659,0.287 2.478,0.436c0.757,0.138 1.55,0.204 2.288,0.424c1.682,0.503 3.237,1.292 4.538,2.503c0.611,0.567 1.153,1.209 1.605,1.909c0.332,0.516 0.551,1.306 1.188,1.523c1.039,0.355 1.345,-0.644 1.691,-1.335c0.197,-0.391 0.119,-0.833 0.204,-1.254c0.116,-0.57 0.159,-1.152 0.143,-1.734Z" style="fill:#eb5e55;fill-rule:nonzero;"/></g><g id="Logo1" serif:id="Logo"></g></svg>